<svg width="1264" height="164" viewBox="0 0 1264 164" fill="none" xmlns="http://www.w3.org/2000/svg">
<mask id="path-1-inside-1_2428_63" fill="white">
<path fill-rule="evenodd" clip-rule="evenodd" d="M51.697 0.75L51.277 1.5L50.643 4.154L50.01 6.807L59.543 7.154L69.075 7.5L70.082 9L71.089 10.5L70.686 15L70.284 19.5L51.143 78.5L32.002 137.5L29.251 143L26.5 148.5L21.985 150.743L17.47 152.986L9.652 153.647L1.834 154.308L0.917 156.719L0 159.13V159.565V160L53.75 159.969L107.5 159.938L119.135 158.553L130.769 157.169L138.438 155.017L146.106 152.866L153.003 149.931L159.899 146.996L165.845 143.512L171.79 140.027L179.645 134.16L187.5 128.293L194.069 121.397L200.637 114.5L204.942 108.123L209.248 101.745L213.638 92.477L218.029 83.208L220.051 75.354L222.074 67.5L222.671 59.931L223.268 52.363L222.064 45.431L220.859 38.5L217.777 32L214.696 25.5L208.092 19L201.489 12.5L195.494 9.348L189.5 6.195L182.693 4.113L175.885 2.03L165.193 1.016L154.5 0.00199986L103.309 0.0010004L52.118 0L51.697 0.75ZM710.975 5.565L710 8.13V8.459V8.788L717.898 9.147L725.796 9.506L727.968 11.471L730.141 13.437L729.518 16.969L728.895 20.5L708.821 82L688.748 143.5L687.253 146.5L685.759 149.5L684.221 151.254L682.682 153.008L679.001 154L675.32 154.991L668.813 155.17L662.307 155.35L661.24 158.175L660.174 161H709.98H759.786L760.393 159.418L761 157.836V156.524V155.212L753.045 154.85L745.089 154.489L743.881 153.281L742.673 152.073L742.802 148.647L742.931 145.221L752.418 115.991L761.905 86.762L762.302 86.364L762.699 85.967L789.719 86.234L816.738 86.5L806.889 116.59L797.039 146.68L794.852 149.461L792.664 152.242L789.364 153.621L786.064 155H779.751H773.438L772.306 158L771.174 161H821.112H871.05L872.025 158.435L873 155.87V155.534V155.199L863.919 154.849L854.838 154.5L853.349 152.5L851.86 150.5L852.409 147L852.958 143.5L872.56 83L892.163 22.5L894.827 17.591L897.491 12.683L901.495 10.863L905.5 9.044L913.031 9.022L920.562 9L921.694 6L922.826 3H872.888H822.95L821.975 5.565L821 8.13V8.565V9H826.532H832.064L835.671 10.507L839.277 12.014L838.685 17.008L838.094 22.002L829.481 48.001L820.867 74H793.486H766.104L766.991 71.25L767.878 68.5L775.965 43.446L784.053 18.391L787.071 14.73L790.088 11.07L793.794 10.04L797.5 9.011L803.75 9.006L810 9V7.582V6.164L810.607 4.582L811.214 3H761.582H711.95L710.975 5.565ZM150.595 13.75L154.689 15.882L157.734 19.35L160.779 22.817L162.526 28.079L164.274 33.34L164.209 42.92L164.145 52.5L161.97 63L159.796 73.5L155.917 85.344L152.038 97.189L147.643 106.467L143.248 115.745L139.055 121.92L134.862 128.094L129.321 133.546L123.781 138.999L116.64 142.501L109.5 146.002L104.114 147.001L98.727 148H94.086H89.445L87.223 146.443L85 144.887L84.966 143.693L84.933 142.5L106.216 76.672L127.5 10.843L137 11.231L146.5 11.619L150.595 13.75ZM295.334 40.481L288.168 41.781L281.334 44.031L274.5 46.281L267.5 49.772L260.5 53.264L256 56.329L251.5 59.394L245.633 64.947L239.765 70.5L235.501 76.5L231.236 82.5L228.128 88.701L225.021 94.902L222.903 102.62L220.786 110.339L221.161 120.477L221.536 130.616L224.768 137.18L228 143.745L232.57 147.958L237.141 152.171L243.414 155.107L249.688 158.043L257.094 159.614L264.5 161.185L282 160.709L299.5 160.234L307.233 158.162L314.967 156.09L321.804 153.218L328.642 150.345L334.141 146.694L339.641 143.044L346.499 137.272L353.357 131.5L358.563 124.66L363.769 117.821L366.827 111.549L369.885 105.277L372.146 98.889L374.406 92.5L374.453 81L374.5 69.5L371.655 63.703L368.81 57.905L363.912 53.007L359.013 48.108L352.757 45.135L346.5 42.162L338.792 40.581L331.084 39L316.792 39.09L302.5 39.18L295.334 40.481ZM453.919 40.01L449.339 40.786L441.631 42.9L433.923 45.015L427.535 47.911L421.147 50.808L414.324 55.247L407.5 59.687L400.783 66.44L394.067 73.193L390.483 78.592L386.899 83.991L383.973 90.245L381.046 96.5L379.023 104.41L377 112.32V117.95V123.58L378.552 129.54L380.104 135.5L382.651 139.847L385.199 144.195L389.233 148.11L393.267 152.025L399.384 154.938L405.5 157.85L413.913 159.548L422.327 161.247L438.913 160.715L455.5 160.183L463.818 158.091L472.136 155.998L479.51 152.591L486.885 149.183L492.452 145.488L498.019 141.793L505.469 134.835L512.92 127.878L516.363 123.187L519.806 118.496L523.308 111.498L526.809 104.5L529.106 97L531.403 89.5L531.36 80.5L531.316 71.5L529.163 65.955L527.01 60.41L521.949 54.732L516.888 49.054L509.694 45.514L502.5 41.974L495.5 40.504L488.5 39.035L473.5 39.135L458.5 39.235L453.919 40.01ZM545 43.817V45.72L550.75 46.313L556.5 46.905L558.243 49.055L559.987 51.205L559.378 53.853L558.77 56.5L544.485 100.5L530.2 144.5L529.196 147L528.192 149.5L526 151.811L523.808 154.123L521.339 155.061L518.87 156H514.042H509.214L508.607 157.582L508 159.164V160.082V161H545.893H583.786L584.393 159.418L585 157.836V156.918V156H579.5H574L572 154L570 152L570.019 150.25L570.038 148.5L576.834 128L583.629 107.5H585.434H587.239L596.349 134.267L605.459 161.033L630.48 160.767L655.5 160.5L655.82 158.25L656.139 156H654.02H651.901L649.091 154.547L646.282 153.094L645.157 150.297L644.033 147.5L637.54 126.616L631.048 105.732L631.583 104.866L632.118 104H633.166H634.214L640.543 100.979L646.873 97.958L651.947 93.947L657.022 89.936L660.443 84.718L663.864 79.5L665.542 73.614L667.221 67.729L666.796 61.851L666.37 55.973L664.343 53.237L662.316 50.5L658.996 48.241L655.677 45.981L650.588 44.267L645.5 42.553L595.25 42.233L545 41.913V43.817ZM957.773 68.25L938.388 94.5L922.99 115.5L907.592 136.5L901.602 143.821L895.613 151.142L891.557 153.453L887.5 155.763L884.51 156.461L881.52 157.159L880.775 158.329L880.031 159.5L880.015 160.27L880 161.04L901.237 160.77L922.474 160.5L922.782 158.895L923.091 157.289L918.122 156.701L913.153 156.112L911.076 154.816L909 153.519V151.694V149.869L910.13 147.684L911.259 145.5L919.234 134.75L927.209 124H945.496H963.783L965.937 135.393L968.092 146.787L967.433 149.409L966.775 152.032L964.321 153.962L961.868 155.892L955.019 156.567L948.17 157.242L947.679 159.121L947.187 161H980.987H1014.79L1015.43 159.33L1016.07 157.66L1014.78 156.845L1013.5 156.031L1012.27 156.015L1011.05 156L1009.6 153.75L1008.16 151.5L999.574 99L990.991 46.5L990.477 44.25L989.962 42H983.56H977.158L957.773 68.25ZM1062.68 42.651L1062 43.333V45.167V47H1064.95H1067.91L1070.2 48.048L1072.5 49.097L1074.58 52.298L1076.66 55.5L1061.91 100.425L1047.15 145.349L1045.84 147.798L1044.53 150.248L1041.04 152.617L1037.56 154.987L1031.86 156.106L1026.17 157.226L1025.68 159.113L1025.19 161H1048.48H1071.77L1072.27 159.069L1072.78 157.138L1068.64 156.508L1064.5 155.878L1061.67 154.783L1058.83 153.688L1057.97 151.429L1057.11 149.17L1058.14 145.335L1059.17 141.5L1071.15 104.523L1083.12 67.545L1083.31 67.386L1083.5 67.226L1112.53 115.363L1141.56 163.5H1149.5H1157.44L1174.97 109.719L1192.5 55.938L1195.14 52.66L1197.78 49.382L1201.76 48.191L1205.73 47H1208.87H1212V46.082V45.164L1212.61 43.582L1213.21 42H1190.71H1168.21L1167.61 43.582L1167 45.164V46.082V47H1171.05H1175.1L1177.98 48.489L1180.86 49.978L1181.51 52.036L1182.16 54.093L1172.35 84.519L1162.55 114.945L1161.69 114.093L1160.84 113.24L1139.62 77.87L1118.4 42.5L1090.88 42.235L1063.36 41.969L1062.68 42.651ZM324.156 49.773L326.811 51.32L329.124 55.41L331.437 59.5L331.305 68.5L331.173 77.5L328.18 89.153L325.186 100.807L321.046 111.153L316.906 121.5L312.775 128.5L308.644 135.5L302.753 141.656L296.863 147.813L291.681 150.056L286.5 152.3L280.998 152.387L275.496 152.474L272.033 150.452L268.571 148.429L266.535 144.965L264.5 141.5L264.61 130.5L264.72 119.5L267.297 109.772L269.874 100.044L273.984 89.772L278.094 79.5L282.23 72.5L286.365 65.5L291.864 59.72L297.363 53.939L300.882 51.764L304.401 49.589L308.951 48.34L313.5 47.091L317.5 47.659L321.5 48.227L324.156 49.773ZM480.495 49.824L483.5 51.546L485.831 56.023L488.162 60.5L487.661 70.5L487.16 80.5L484.545 90.397L481.93 100.294L477.665 110.897L473.399 121.5L469.023 129L464.646 136.5L458.515 142.65L452.384 148.801L445.442 150.961L438.5 153.122L434.04 152.468L429.579 151.814L425.91 148.145L422.241 144.476L421.107 138.988L419.974 133.5L420.959 125.776L421.944 118.051L423.406 111.776L424.867 105.5L428.03 96.5L431.193 87.5L435.258 79.134L439.323 70.768L443.751 64.878L448.179 58.987L452.34 55.618L456.5 52.249L460 50.457L463.5 48.665L466.5 47.892L469.5 47.119L473.495 47.61L477.49 48.102L480.495 49.824ZM620 51.752L623.5 53.5L625.4 57.392L627.3 61.284L626.244 66.892L625.188 72.5L623.061 78.147L620.933 83.794L616.84 88.444L612.747 93.095L607.623 95.718L602.5 98.341L594.258 98.796L586.017 99.25L586.953 96.375L587.89 93.5L594.513 73L601.136 52.5L601.537 51.25L601.937 50L609.219 50.002L616.5 50.003L620 51.752ZM960.324 99.827L962.661 116H947.791H932.921L938.627 108.25L944.332 100.5L950.916 91.841L957.5 83.182L957.744 83.418L957.988 83.654L960.324 99.827Z"/>
</mask>
<path fill-rule="evenodd" clip-rule="evenodd" d="M51.697 0.75L51.277 1.5L50.643 4.154L50.01 6.807L59.543 7.154L69.075 7.5L70.082 9L71.089 10.5L70.686 15L70.284 19.5L51.143 78.5L32.002 137.5L29.251 143L26.5 148.5L21.985 150.743L17.47 152.986L9.652 153.647L1.834 154.308L0.917 156.719L0 159.13V159.565V160L53.75 159.969L107.5 159.938L119.135 158.553L130.769 157.169L138.438 155.017L146.106 152.866L153.003 149.931L159.899 146.996L165.845 143.512L171.79 140.027L179.645 134.16L187.5 128.293L194.069 121.397L200.637 114.5L204.942 108.123L209.248 101.745L213.638 92.477L218.029 83.208L220.051 75.354L222.074 67.5L222.671 59.931L223.268 52.363L222.064 45.431L220.859 38.5L217.777 32L214.696 25.5L208.092 19L201.489 12.5L195.494 9.348L189.5 6.195L182.693 4.113L175.885 2.03L165.193 1.016L154.5 0.00199986L103.309 0.0010004L52.118 0L51.697 0.75ZM710.975 5.565L710 8.13V8.459V8.788L717.898 9.147L725.796 9.506L727.968 11.471L730.141 13.437L729.518 16.969L728.895 20.5L708.821 82L688.748 143.5L687.253 146.5L685.759 149.5L684.221 151.254L682.682 153.008L679.001 154L675.32 154.991L668.813 155.17L662.307 155.35L661.24 158.175L660.174 161H709.98H759.786L760.393 159.418L761 157.836V156.524V155.212L753.045 154.85L745.089 154.489L743.881 153.281L742.673 152.073L742.802 148.647L742.931 145.221L752.418 115.991L761.905 86.762L762.302 86.364L762.699 85.967L789.719 86.234L816.738 86.5L806.889 116.59L797.039 146.68L794.852 149.461L792.664 152.242L789.364 153.621L786.064 155H779.751H773.438L772.306 158L771.174 161H821.112H871.05L872.025 158.435L873 155.87V155.534V155.199L863.919 154.849L854.838 154.5L853.349 152.5L851.86 150.5L852.409 147L852.958 143.5L872.56 83L892.163 22.5L894.827 17.591L897.491 12.683L901.495 10.863L905.5 9.044L913.031 9.022L920.562 9L921.694 6L922.826 3H872.888H822.95L821.975 5.565L821 8.13V8.565V9H826.532H832.064L835.671 10.507L839.277 12.014L838.685 17.008L838.094 22.002L829.481 48.001L820.867 74H793.486H766.104L766.991 71.25L767.878 68.5L775.965 43.446L784.053 18.391L787.071 14.73L790.088 11.07L793.794 10.04L797.5 9.011L803.75 9.006L810 9V7.582V6.164L810.607 4.582L811.214 3H761.582H711.95L710.975 5.565ZM150.595 13.75L154.689 15.882L157.734 19.35L160.779 22.817L162.526 28.079L164.274 33.34L164.209 42.92L164.145 52.5L161.97 63L159.796 73.5L155.917 85.344L152.038 97.189L147.643 106.467L143.248 115.745L139.055 121.92L134.862 128.094L129.321 133.546L123.781 138.999L116.64 142.501L109.5 146.002L104.114 147.001L98.727 148H94.086H89.445L87.223 146.443L85 144.887L84.966 143.693L84.933 142.5L106.216 76.672L127.5 10.843L137 11.231L146.5 11.619L150.595 13.75ZM295.334 40.481L288.168 41.781L281.334 44.031L274.5 46.281L267.5 49.772L260.5 53.264L256 56.329L251.5 59.394L245.633 64.947L239.765 70.5L235.501 76.5L231.236 82.5L228.128 88.701L225.021 94.902L222.903 102.62L220.786 110.339L221.161 120.477L221.536 130.616L224.768 137.18L228 143.745L232.57 147.958L237.141 152.171L243.414 155.107L249.688 158.043L257.094 159.614L264.5 161.185L282 160.709L299.5 160.234L307.233 158.162L314.967 156.09L321.804 153.218L328.642 150.345L334.141 146.694L339.641 143.044L346.499 137.272L353.357 131.5L358.563 124.66L363.769 117.821L366.827 111.549L369.885 105.277L372.146 98.889L374.406 92.5L374.453 81L374.5 69.5L371.655 63.703L368.81 57.905L363.912 53.007L359.013 48.108L352.757 45.135L346.5 42.162L338.792 40.581L331.084 39L316.792 39.09L302.5 39.18L295.334 40.481ZM453.919 40.01L449.339 40.786L441.631 42.9L433.923 45.015L427.535 47.911L421.147 50.808L414.324 55.247L407.5 59.687L400.783 66.44L394.067 73.193L390.483 78.592L386.899 83.991L383.973 90.245L381.046 96.5L379.023 104.41L377 112.32V117.95V123.58L378.552 129.54L380.104 135.5L382.651 139.847L385.199 144.195L389.233 148.11L393.267 152.025L399.384 154.938L405.5 157.85L413.913 159.548L422.327 161.247L438.913 160.715L455.5 160.183L463.818 158.091L472.136 155.998L479.51 152.591L486.885 149.183L492.452 145.488L498.019 141.793L505.469 134.835L512.92 127.878L516.363 123.187L519.806 118.496L523.308 111.498L526.809 104.5L529.106 97L531.403 89.5L531.36 80.5L531.316 71.5L529.163 65.955L527.01 60.41L521.949 54.732L516.888 49.054L509.694 45.514L502.5 41.974L495.5 40.504L488.5 39.035L473.5 39.135L458.5 39.235L453.919 40.01ZM545 43.817V45.72L550.75 46.313L556.5 46.905L558.243 49.055L559.987 51.205L559.378 53.853L558.77 56.5L544.485 100.5L530.2 144.5L529.196 147L528.192 149.5L526 151.811L523.808 154.123L521.339 155.061L518.87 156H514.042H509.214L508.607 157.582L508 159.164V160.082V161H545.893H583.786L584.393 159.418L585 157.836V156.918V156H579.5H574L572 154L570 152L570.019 150.25L570.038 148.5L576.834 128L583.629 107.5H585.434H587.239L596.349 134.267L605.459 161.033L630.48 160.767L655.5 160.5L655.82 158.25L656.139 156H654.02H651.901L649.091 154.547L646.282 153.094L645.157 150.297L644.033 147.5L637.54 126.616L631.048 105.732L631.583 104.866L632.118 104H633.166H634.214L640.543 100.979L646.873 97.958L651.947 93.947L657.022 89.936L660.443 84.718L663.864 79.5L665.542 73.614L667.221 67.729L666.796 61.851L666.37 55.973L664.343 53.237L662.316 50.5L658.996 48.241L655.677 45.981L650.588 44.267L645.5 42.553L595.25 42.233L545 41.913V43.817ZM957.773 68.25L938.388 94.5L922.99 115.5L907.592 136.5L901.602 143.821L895.613 151.142L891.557 153.453L887.5 155.763L884.51 156.461L881.52 157.159L880.775 158.329L880.031 159.5L880.015 160.27L880 161.04L901.237 160.77L922.474 160.5L922.782 158.895L923.091 157.289L918.122 156.701L913.153 156.112L911.076 154.816L909 153.519V151.694V149.869L910.13 147.684L911.259 145.5L919.234 134.75L927.209 124H945.496H963.783L965.937 135.393L968.092 146.787L967.433 149.409L966.775 152.032L964.321 153.962L961.868 155.892L955.019 156.567L948.17 157.242L947.679 159.121L947.187 161H980.987H1014.79L1015.43 159.33L1016.07 157.66L1014.78 156.845L1013.5 156.031L1012.27 156.015L1011.05 156L1009.6 153.75L1008.16 151.5L999.574 99L990.991 46.5L990.477 44.25L989.962 42H983.56H977.158L957.773 68.25ZM1062.68 42.651L1062 43.333V45.167V47H1064.95H1067.91L1070.2 48.048L1072.5 49.097L1074.58 52.298L1076.66 55.5L1061.91 100.425L1047.15 145.349L1045.84 147.798L1044.53 150.248L1041.04 152.617L1037.56 154.987L1031.86 156.106L1026.17 157.226L1025.68 159.113L1025.19 161H1048.48H1071.77L1072.27 159.069L1072.78 157.138L1068.64 156.508L1064.5 155.878L1061.67 154.783L1058.83 153.688L1057.97 151.429L1057.11 149.17L1058.14 145.335L1059.17 141.5L1071.15 104.523L1083.12 67.545L1083.31 67.386L1083.5 67.226L1112.53 115.363L1141.56 163.5H1149.5H1157.44L1174.97 109.719L1192.5 55.938L1195.14 52.66L1197.78 49.382L1201.76 48.191L1205.73 47H1208.87H1212V46.082V45.164L1212.61 43.582L1213.21 42H1190.71H1168.21L1167.61 43.582L1167 45.164V46.082V47H1171.05H1175.1L1177.98 48.489L1180.86 49.978L1181.51 52.036L1182.16 54.093L1172.35 84.519L1162.55 114.945L1161.69 114.093L1160.84 113.24L1139.62 77.87L1118.4 42.5L1090.88 42.235L1063.36 41.969L1062.68 42.651ZM324.156 49.773L326.811 51.32L329.124 55.41L331.437 59.5L331.305 68.5L331.173 77.5L328.18 89.153L325.186 100.807L321.046 111.153L316.906 121.5L312.775 128.5L308.644 135.5L302.753 141.656L296.863 147.813L291.681 150.056L286.5 152.3L280.998 152.387L275.496 152.474L272.033 150.452L268.571 148.429L266.535 144.965L264.5 141.5L264.61 130.5L264.72 119.5L267.297 109.772L269.874 100.044L273.984 89.772L278.094 79.5L282.23 72.5L286.365 65.5L291.864 59.72L297.363 53.939L300.882 51.764L304.401 49.589L308.951 48.34L313.5 47.091L317.5 47.659L321.5 48.227L324.156 49.773ZM480.495 49.824L483.5 51.546L485.831 56.023L488.162 60.5L487.661 70.5L487.16 80.5L484.545 90.397L481.93 100.294L477.665 110.897L473.399 121.5L469.023 129L464.646 136.5L458.515 142.65L452.384 148.801L445.442 150.961L438.5 153.122L434.04 152.468L429.579 151.814L425.91 148.145L422.241 144.476L421.107 138.988L419.974 133.5L420.959 125.776L421.944 118.051L423.406 111.776L424.867 105.5L428.03 96.5L431.193 87.5L435.258 79.134L439.323 70.768L443.751 64.878L448.179 58.987L452.34 55.618L456.5 52.249L460 50.457L463.5 48.665L466.5 47.892L469.5 47.119L473.495 47.61L477.49 48.102L480.495 49.824ZM620 51.752L623.5 53.5L625.4 57.392L627.3 61.284L626.244 66.892L625.188 72.5L623.061 78.147L620.933 83.794L616.84 88.444L612.747 93.095L607.623 95.718L602.5 98.341L594.258 98.796L586.017 99.25L586.953 96.375L587.89 93.5L594.513 73L601.136 52.5L601.537 51.25L601.937 50L609.219 50.002L616.5 50.003L620 51.752ZM960.324 99.827L962.661 116H947.791H932.921L938.627 108.25L944.332 100.5L950.916 91.841L957.5 83.182L957.744 83.418L957.988 83.654L960.324 99.827Z" fill="#024A71" stroke="#024A71" stroke-width="2" mask="url(#path-1-inside-1_2428_63)"/>
<circle cx="1243" cy="26" r="18.5" stroke="#024A71" stroke-width="5"/>
<mask id="path-3-outside-2_2428_63" maskUnits="userSpaceOnUse" x="1234" y="13" width="22" height="26" fill="black">
<rect fill="white" x="1234" y="13" width="22" height="26"/>
<path d="M1235.09 38V14H1244.55C1246.37 14 1247.91 14.3242 1249.2 14.9727C1250.48 15.6133 1251.46 16.5234 1252.14 17.7031C1252.82 18.875 1253.16 20.2539 1253.16 21.8398C1253.16 23.4336 1252.81 24.8047 1252.13 25.9531C1251.44 27.0937 1250.44 27.9687 1249.14 28.5781C1247.84 29.1875 1246.27 29.4922 1244.43 29.4922H1238.09V25.4141H1243.61C1244.57 25.4141 1245.38 25.2812 1246.02 25.0156C1246.66 24.75 1247.14 24.3516 1247.45 23.8203C1247.77 23.2891 1247.93 22.6289 1247.93 21.8398C1247.93 21.043 1247.77 20.3711 1247.45 19.8242C1247.14 19.2773 1246.66 18.8633 1246.01 18.582C1245.37 18.293 1244.56 18.1484 1243.58 18.1484H1240.16V38H1235.09ZM1248.05 27.0781L1254.01 38H1248.41L1242.57 27.0781H1248.05Z"/>
</mask>
<path d="M1235.09 38V14H1244.55C1246.37 14 1247.91 14.3242 1249.2 14.9727C1250.48 15.6133 1251.46 16.5234 1252.14 17.7031C1252.82 18.875 1253.16 20.2539 1253.16 21.8398C1253.16 23.4336 1252.81 24.8047 1252.13 25.9531C1251.44 27.0937 1250.44 27.9687 1249.14 28.5781C1247.84 29.1875 1246.27 29.4922 1244.43 29.4922H1238.09V25.4141H1243.61C1244.57 25.4141 1245.38 25.2812 1246.02 25.0156C1246.66 24.75 1247.14 24.3516 1247.45 23.8203C1247.77 23.2891 1247.93 22.6289 1247.93 21.8398C1247.93 21.043 1247.77 20.3711 1247.45 19.8242C1247.14 19.2773 1246.66 18.8633 1246.01 18.582C1245.37 18.293 1244.56 18.1484 1243.58 18.1484H1240.16V38H1235.09ZM1248.05 27.0781L1254.01 38H1248.41L1242.57 27.0781H1248.05Z" fill="#024A71"/>
<path d="M1235.09 38H1234.09V39H1235.09V38ZM1235.09 14V13H1234.09V14H1235.09ZM1249.2 14.9727L1248.74 15.8649L1248.75 15.8682L1249.2 14.9727ZM1252.14 17.7031L1251.27 18.198L1251.27 18.2048L1252.14 17.7031ZM1252.13 25.9531L1252.98 26.4693L1252.98 26.4668L1252.13 25.9531ZM1249.14 28.5781L1248.71 27.6721L1248.71 27.6731L1249.14 28.5781ZM1238.09 29.4922H1237.09V30.4922H1238.09V29.4922ZM1238.09 25.4141V24.4141H1237.09V25.4141H1238.09ZM1246.02 25.0156L1246.4 25.9394L1246.02 25.0156ZM1247.45 23.8203L1246.59 23.3039L1246.59 23.3133L1247.45 23.8203ZM1247.45 19.8242L1246.58 20.3204L1246.59 20.3296L1247.45 19.8242ZM1246.01 18.582L1245.6 19.4935L1245.6 19.4965L1245.61 19.4995L1246.01 18.582ZM1240.16 18.1484V17.1484H1239.16V18.1484H1240.16ZM1240.16 38V39H1241.16V38H1240.16ZM1248.05 27.0781L1248.92 26.5988L1248.64 26.0781H1248.05V27.0781ZM1254.01 38V39H1255.7L1254.89 37.5207L1254.01 38ZM1248.41 38L1247.53 38.4713L1247.81 39H1248.41V38ZM1242.57 27.0781V26.0781H1240.91L1241.69 27.5494L1242.57 27.0781ZM1235.09 38H1236.09V14H1235.09H1234.09V38H1235.09ZM1235.09 14V15H1244.55V14V13H1235.09V14ZM1244.55 14V15C1246.25 15 1247.63 15.3034 1248.74 15.8649L1249.2 14.9727L1249.65 14.0804C1248.19 13.345 1246.48 13 1244.55 13V14ZM1249.2 14.9727L1248.75 15.8682C1249.87 16.426 1250.7 17.2017 1251.27 18.198L1252.14 17.7031L1253.01 17.2082C1252.23 15.8452 1251.1 14.8006 1249.64 14.0771L1249.2 14.9727ZM1252.14 17.7031L1251.27 18.2048C1251.85 19.2 1252.16 20.3998 1252.16 21.8398H1253.16H1254.16C1254.16 20.108 1253.78 18.55 1253 17.2014L1252.14 17.7031ZM1253.16 21.8398H1252.16C1252.16 23.2874 1251.85 24.4736 1251.27 25.4395L1252.13 25.9531L1252.98 26.4668C1253.78 25.1358 1254.16 23.5798 1254.16 21.8398H1253.16ZM1252.13 25.9531L1251.27 25.4369C1250.69 26.3935 1249.85 27.1396 1248.71 27.6721L1249.14 28.5781L1249.56 29.4842C1251.03 28.7979 1252.18 27.794 1252.98 26.4693L1252.13 25.9531ZM1249.14 28.5781L1248.71 27.6731C1247.58 28.2047 1246.16 28.4922 1244.43 28.4922V29.4922V30.4922C1246.38 30.4922 1248.1 30.1703 1249.56 29.4832L1249.14 28.5781ZM1244.43 29.4922V28.4922H1238.09V29.4922V30.4922H1244.43V29.4922ZM1238.09 29.4922H1239.09V25.4141H1238.09H1237.09V29.4922H1238.09ZM1238.09 25.4141V26.4141H1243.61V25.4141V24.4141H1238.09V25.4141ZM1243.61 25.4141V26.4141C1244.66 26.4141 1245.6 26.2711 1246.4 25.9394L1246.02 25.0156L1245.64 24.0919C1245.16 24.2914 1244.49 24.4141 1243.61 24.4141V25.4141ZM1246.02 25.0156L1246.4 25.9394C1247.22 25.6015 1247.87 25.069 1248.31 24.3273L1247.45 23.8203L1246.59 23.3133C1246.4 23.6341 1246.1 23.8985 1245.64 24.0919L1246.02 25.0156ZM1247.45 23.8203L1248.31 24.3367C1248.74 23.6125 1248.93 22.7621 1248.93 21.8398H1247.93H1246.93C1246.93 22.4957 1246.8 22.9656 1246.59 23.304L1247.45 23.8203ZM1247.93 21.8398H1248.93C1248.93 20.9105 1248.74 20.0537 1248.31 19.3188L1247.45 19.8242L1246.59 20.3296C1246.8 20.6884 1246.93 21.1755 1246.93 21.8398H1247.93ZM1247.45 19.8242L1248.32 19.3281C1247.88 18.571 1247.23 18.0208 1246.41 17.6646L1246.01 18.582L1245.61 19.4995C1246.09 19.7058 1246.39 19.9837 1246.58 20.3204L1247.45 19.8242ZM1246.01 18.582L1246.42 17.6705C1245.61 17.3051 1244.65 17.1484 1243.58 17.1484V18.1484V19.1484C1244.47 19.1484 1245.13 19.2809 1245.6 19.4935L1246.01 18.582ZM1243.58 18.1484V17.1484H1240.16V18.1484V19.1484H1243.58V18.1484ZM1240.16 18.1484H1239.16V38H1240.16H1241.16V18.1484H1240.16ZM1240.16 38V37H1235.09V38V39H1240.16V38ZM1248.05 27.0781L1247.17 27.5574L1253.13 38.4793L1254.01 38L1254.89 37.5207L1248.92 26.5988L1248.05 27.0781ZM1254.01 38V37H1248.41V38V39H1254.01V38ZM1248.41 38L1249.29 37.5287L1243.46 26.6068L1242.57 27.0781L1241.69 27.5494L1247.53 38.4713L1248.41 38ZM1242.57 27.0781V28.0781H1248.05V27.0781V26.0781H1242.57V27.0781Z" fill="#024A71" mask="url(#path-3-outside-2_2428_63)"/>
</svg>
